<?xml version="1.0" encoding="UTF-8"?>
<svg version="1.1" xmlns="http://www.w3.org/2000/svg" width="500" height="500">
<path d="M0 0 C165 0 330 0 500 0 C500 165 500 330 500 500 C335 500 170 500 0 500 C0 335 0 170 0 0 Z " fill="#FEFEFE" transform="translate(0,0)"/>
<path d="M0 0 C2.27046715 0.01611299 4.53915551 0.00001561 6.80957031 -0.01904297 C20.48768079 -0.03967485 33.81439796 1.79559728 46.83300781 6.14111328 C47.61909424 6.39787842 48.40518066 6.65464355 49.21508789 6.91918945 C74.05400811 15.24221774 94.38944955 28.43773707 113.27050781 46.39111328 C114.33011719 47.35404297 114.33011719 47.35404297 115.41113281 48.33642578 C133.60406454 65.4200324 145.55675353 89.70473717 152.27050781 113.39111328 C152.81194793 115.07868598 153.35360094 116.7661904 153.89550781 118.45361328 C157.11596795 129.51866364 157.5894984 140.32584611 157.53125 151.76269531 C157.52055563 154.25496921 157.53118718 156.74651778 157.54394531 159.23876953 C157.55728106 173.8678987 155.88890933 187.41837457 151.27050781 201.39111328 C150.91279297 202.47634277 150.91279297 202.47634277 150.54785156 203.58349609 C143.52644056 224.49777433 133.43782985 243.06907488 118.27832031 259.20751953 C116.23731811 261.35488176 116.23731811 261.35488176 114.51269531 263.73095703 C96.09289879 285.584409 68.05731379 298.53159542 41.27050781 306.39111328 C40.20832031 306.70306641 39.14613281 307.01501953 38.05175781 307.33642578 C30.34204027 309.51802168 22.97110792 310.54620755 14.94238281 310.59423828 C14.15983627 310.60125259 13.37728973 310.60826691 12.57102966 310.61549377 C10.05413017 310.63293598 7.53746555 310.63934733 5.02050781 310.64111328 C4.16325104 310.64178802 3.30599426 310.64246277 2.42276001 310.64315796 C-9.84824729 310.62777121 -21.76765239 310.40361593 -33.72949219 307.39111328 C-34.43686523 307.21950684 -35.14423828 307.04790039 -35.87304688 306.87109375 C-63.07561224 300.09165708 -86.48850468 285.53973003 -106.72949219 266.39111328 C-107.62410156 265.56095703 -108.51871094 264.73080078 -109.44042969 263.87548828 C-134.92485907 239.46183324 -151.93466186 201.13465344 -152.99681091 165.94973755 C-153.0795998 162.07587625 -153.10342206 158.20328051 -153.10449219 154.32861328 C-153.10639557 153.5846228 -153.10829895 152.84063232 -153.11026001 152.07409668 C-153.10664146 139.58836055 -151.94120385 127.554959 -148.47949219 115.51611328 C-148.26260742 114.75564697 -148.04572266 113.99518066 -147.82226562 113.21166992 C-142.71362606 95.79833058 -134.84705496 78.80646995 -123.72949219 64.39111328 C-123.10429688 63.57513672 -122.47910156 62.75916016 -121.83496094 61.91845703 C-95.85290729 28.76187181 -60.02977871 6.82753783 -18.05859375 0.67272949 C-12.05893803 -0.05270058 -6.03523457 -0.05066168 0 0 Z " fill="#FCFCFC" transform="translate(247.7294921875,94.60888671875)"/>
<path d="M0 0 C1.12796997 -0.01260864 2.25593994 -0.02521729 3.41809082 -0.03820801 C5.23850891 -0.02606262 5.23850891 -0.02606262 7.09570312 -0.01367188 C8.3457312 -0.01749878 9.59575928 -0.02132568 10.88366699 -0.02526855 C13.52701218 -0.02799102 16.16887798 -0.02262141 18.81201172 -0.00390625 C22.19512803 0.01888458 25.57697509 0.00575829 28.96004486 -0.01819611 C32.19280946 -0.03614871 35.42542195 -0.02356889 38.65820312 -0.01367188 C39.87181519 -0.0217688 41.08542725 -0.02986572 42.33581543 -0.03820801 C43.4637854 -0.02559937 44.59175537 -0.01299072 45.75390625 0 C47.24138367 0.00477356 47.24138367 0.00477356 48.75891113 0.00964355 C52.12274864 0.66227226 53.3382773 1.80252132 55.37695312 4.51757812 C55.31353641 8.13233061 55.11924844 10.51709314 52.93945312 13.45507812 C51.37695312 14.51757812 51.37695312 14.51757812 49.37695312 14.51757812 C49.37695312 20.78757813 49.37695312 27.05757812 49.37695312 33.51757812 C51.33632812 33.41445312 53.29570312 33.31132812 55.31445312 33.20507812 C61.8637275 33.21933117 66.31834876 34.29153573 71.37695312 38.51757812 C75.60766984 43.16526452 77.51082036 47.35854628 77.47460938 53.62304688 C77.46977539 55.09741211 77.46977539 55.09741211 77.46484375 56.6015625 C77.45227539 58.13780273 77.45227539 58.13780273 77.43945312 59.70507812 C77.43494141 60.74083984 77.43042969 61.77660156 77.42578125 62.84375 C77.41399323 65.40175079 77.39753828 67.95963546 77.37695312 70.51757812 C75.89195312 71.01257813 75.89195312 71.01257813 74.37695312 71.51757812 C74.36760742 70.88779053 74.35826172 70.25800293 74.34863281 69.60913086 C74.29456551 66.72368594 74.21099187 63.83979949 74.12695312 60.95507812 C74.11277344 59.96443359 74.09859375 58.97378906 74.08398438 57.953125 C73.87421119 51.63895225 73.13240591 47.65481864 69.37695312 42.51757812 C63.92294378 38.28793822 59.79132401 37.36642831 53.06323242 37.34057617 C52.32140717 37.33400497 51.57958191 37.32743378 50.8152771 37.32066345 C48.3605743 37.30095473 45.90593261 37.28927352 43.45117188 37.27929688 C42.6119047 37.27522135 41.77263752 37.27114582 40.907938 37.26694679 C36.46605298 37.24609676 32.02419875 37.23179023 27.58227539 37.22241211 C22.99895286 37.21134766 18.41611582 37.17694456 13.8329649 37.13724041 C10.30443937 37.11107337 6.77602956 37.10272023 3.24741554 37.09913063 C1.55815157 37.09426517 -0.13110724 37.08265227 -1.82027626 37.06409264 C-4.18762136 37.03969761 -6.5537098 37.04066625 -8.92114258 37.04760742 C-9.61486465 37.03479736 -10.30858673 37.0219873 -11.02333069 37.00878906 C-16.01586612 37.06197582 -18.67985193 38.57822471 -22.62304688 41.51757812 C-23.28304687 41.51757812 -23.94304687 41.51757812 -24.62304688 41.51757812 C-24.91179687 42.26007813 -25.20054687 43.00257813 -25.49804688 43.76757812 C-26.62304688 46.51757812 -26.62304688 46.51757812 -27.67664528 48.3803978 C-28.79242594 50.90007283 -28.87979543 52.71183616 -28.89047241 55.46246338 C-28.89900238 56.45768509 -28.90753235 57.4529068 -28.9163208 58.47828674 C-28.91541443 59.56407516 -28.91450806 60.64986359 -28.91357422 61.76855469 C-28.92029144 62.91696335 -28.92700867 64.06537201 -28.93392944 65.24858093 C-28.9529545 69.05183215 -28.95683616 72.85490726 -28.95898438 76.65820312 C-28.96540992 79.30133131 -28.97213809 81.94445877 -28.97915649 84.58758545 C-28.99194492 90.13245795 -28.99492178 95.67728271 -28.99365234 101.22216797 C-28.99245229 107.61833272 -29.01352748 114.01415928 -29.04513967 120.4102385 C-29.07451651 126.57507582 -29.08162641 132.73975181 -29.08043289 138.90465546 C-29.08279123 141.52167897 -29.09162776 144.13870505 -29.10709763 146.7556839 C-29.12672962 150.42041409 -29.12092903 154.08427881 -29.10888672 157.74902344 C-29.12012573 158.82671494 -29.13136475 159.90440643 -29.14294434 161.01475525 C-29.08275881 168.23575377 -28.09940854 173.99636018 -22.80664062 179.35742188 C-22.23042969 179.71964844 -21.65421875 180.081875 -21.06054688 180.45507812 C-20.48175781 180.83535156 -19.90296875 181.215625 -19.30664062 181.60742188 C-15.637277 183.59109177 -12.50163946 183.66659552 -8.4074707 183.72290039 C-7.12636917 183.74284561 -5.84526764 183.76279083 -4.52534485 183.78334045 C-3.12692384 183.80032352 -1.72850156 183.81720237 -0.33007812 183.83398438 C1.10053603 183.85455979 2.53114418 183.87555642 3.96174622 183.8969574 C7.72475319 183.95211745 11.48781447 184.00155341 15.25091553 184.04980469 C19.09180528 184.10006405 22.93261629 184.15572695 26.7734375 184.2109375 C34.307876 184.31844485 41.84238003 184.41990623 49.37695312 184.51757812 C49.3725119 183.69738693 49.36807068 182.87719574 49.36349487 182.03215027 C49.32344055 174.30711578 49.29298016 166.58213156 49.27332878 158.85702038 C49.26288623 154.88534812 49.2487185 150.91376159 49.22607422 146.94213867 C49.20436254 143.11015796 49.19238805 139.27825977 49.18719864 135.44622231 C49.18349986 133.98336805 49.17627716 132.52051838 49.16549301 131.0576992 C49.15100015 129.01061577 49.14897422 126.96387443 49.14990234 124.91674805 C49.14546112 123.75092697 49.1410199 122.5851059 49.13644409 121.38395691 C49.37695312 118.51757812 49.37695312 118.51757812 51.37695312 115.51757812 C51.74271367 113.19834538 51.74271367 113.19834538 51.79101562 110.63085938 C51.8296875 109.69306641 51.86835938 108.75527344 51.90820312 107.7890625 C51.93914062 106.81259766 51.97007812 105.83613281 52.00195312 104.83007812 C52.040625 103.84201172 52.07929688 102.85394531 52.11914062 101.8359375 C52.21341179 99.39667106 52.2990153 96.95741217 52.37695312 94.51757812 C53.36695313 94.51757812 54.35695313 94.51757812 55.37695312 94.51757812 C55.37695312 100.12757813 55.37695312 105.73757812 55.37695312 111.51757812 C57.35695313 110.85757813 59.33695312 110.19757813 61.37695312 109.51757812 C61.37695312 104.56757813 61.37695312 99.61757812 61.37695312 94.51757812 C62.69695312 94.51757812 64.01695312 94.51757812 65.37695312 94.51757812 C65.37695312 99.46757812 65.37695312 104.41757813 65.37695312 109.51757812 C68.34695312 109.51757812 71.31695312 109.51757812 74.37695312 109.51757812 C74.37695312 104.56757813 74.37695312 99.61757812 74.37695312 94.51757812 C75.69695312 94.51757812 77.01695312 94.51757812 78.37695312 94.51757812 C78.37695312 99.46757812 78.37695312 104.41757813 78.37695312 109.51757812 C80.02695312 109.51757812 81.67695313 109.51757812 83.37695312 109.51757812 C83.27382813 108.32132812 83.17070312 107.12507813 83.06445312 105.89257812 C83.046248 102.47608325 83.56564036 100.7151941 85.75195312 98.08007812 C89.43309937 94.48657822 91.02035751 94.39456502 96.04101562 94.41992188 C97.72324219 94.42475586 97.72324219 94.42475586 99.43945312 94.4296875 C100.61507812 94.43806641 101.79070312 94.44644531 103.00195312 94.45507812 C104.1853125 94.45958984 105.36867188 94.46410156 106.58789062 94.46875 C109.51762819 94.48056346 112.44726585 94.49703555 115.37695312 94.51757812 C115.37695312 95.50757813 115.37695312 96.49757813 115.37695312 97.51757812 C114.31782715 97.53159668 114.31782715 97.53159668 113.23730469 97.54589844 C110.03314767 97.59963471 106.83044555 97.68327569 103.62695312 97.76757812 C102.51578125 97.78175781 101.40460938 97.7959375 100.25976562 97.81054688 C99.18984375 97.84277344 98.11992187 97.875 97.01757812 97.90820312 C95.5407959 97.93962402 95.5407959 97.93962402 94.03417969 97.97167969 C90.65694844 98.66549529 89.46355321 99.81281525 87.37695312 102.51757812 C86.56929434 106.16479508 86.56929434 106.16479508 86.37695312 109.51757812 C87.69695312 109.51757812 89.01695312 109.51757812 90.37695312 109.51757812 C90.45945312 108.58945312 90.54195313 107.66132813 90.62695312 106.70507812 C91.37695312 103.51757812 91.37695312 103.51757812 93.13476562 101.84326172 C95.66840947 100.34525583 97.08319677 100.13161902 100.00195312 100.11914062 C100.87335938 100.11527344 101.74476563 100.11140625 102.64257812 100.10742188 C103.99609375 100.12482422 103.99609375 100.12482422 105.37695312 100.14257812 C106.27929688 100.13097656 107.18164062 100.119375 108.11132812 100.10742188 C108.98273438 100.11128906 109.85414063 100.11515625 110.75195312 100.11914062 C111.5434375 100.12252441 112.33492187 100.1259082 113.15039062 100.12939453 C115.95327008 100.61805444 117.34409422 101.5462339 119.37695312 103.51757812 C119.62695312 106.70507812 119.62695312 106.70507812 119.37695312 109.51757812 C120.69695312 109.51757812 122.01695312 109.51757812 123.37695312 109.51757812 C123.37695312 106.87757813 123.37695312 104.23757812 123.37695312 101.51757812 C124.69695312 101.51757812 126.01695312 101.51757812 127.37695312 101.51757812 C127.37695312 104.15757812 127.37695312 106.79757812 127.37695312 109.51757812 C128.04227051 109.50186768 128.70758789 109.48615723 129.39306641 109.4699707 C132.42927432 109.40732215 135.46534585 109.36849304 138.50195312 109.33007812 C139.54867187 109.30494141 140.59539062 109.27980469 141.67382812 109.25390625 C147.3161332 109.20034006 151.55793039 109.21086659 156.37695312 112.51757812 C160.64840143 117.25080463 161.5027651 119.75901641 161.53808594 126.07519531 C161.54305084 126.74859955 161.54801575 127.42200378 161.5531311 128.11581421 C161.56776208 130.34870418 161.57455738 132.58152304 161.58007812 134.81445312 C161.58583024 136.3666382 161.59158797 137.91882326 161.59735107 139.4710083 C161.6078647 142.72937349 161.61370452 145.98771398 161.6171875 149.24609375 C161.62266316 153.41347755 161.64666951 157.58053312 161.67515945 161.74781418 C161.69382331 164.95636941 161.69899349 168.16484631 161.70052338 171.37345123 C161.70354363 172.90919025 161.71155096 174.44492809 161.72470856 175.98061371 C161.7418428 178.13478694 161.739871 180.28816831 161.73339844 182.44238281 C161.73886688 184.27866241 161.73886688 184.27866241 161.7444458 186.15203857 C161.24374008 190.73755824 160.25718769 193.86114423 156.71690941 196.98003006 C151.63658755 200.54116636 147.39941059 201.23347269 141.30224609 201.1328125 C140.43289429 201.13836151 139.56354248 201.14391052 138.66784668 201.14962769 C135.81770275 201.16136004 132.96917134 201.13721835 130.11914062 201.11132812 C128.12712679 201.10961552 126.13511071 201.10968423 124.14309692 201.1114502 C119.97880339 201.1098007 115.81505063 201.0911677 111.65087891 201.05957031 C106.3200149 201.01984248 100.98985662 201.01553346 95.6588726 201.02303314 C91.54954593 201.02610565 87.44037719 201.01397311 83.33108902 200.99690247 C81.3655509 200.98988537 79.39999489 200.98674636 77.43444443 200.9875946 C74.68692534 200.98579221 71.94024472 200.96437426 69.19287109 200.9375 C68.38544464 200.9404306 67.57801819 200.94336121 66.74612427 200.94638062 C60.68782648 200.85518165 56.42646167 199.6224788 52.06445312 195.14257812 C50.37695312 192.51757812 50.37695312 192.51757812 49.37695312 187.51757812 C31.22695312 187.51757812 13.07695312 187.51757812 -5.62304688 187.51757812 C-5.62304688 190.81757813 -5.62304688 194.11757813 -5.62304688 197.51757812 C-9.62304688 200.51757812 -9.62304688 200.51757812 -13.24804688 200.39257812 C-16.62304688 199.51757812 -16.62304688 199.51757812 -18.62304688 196.51757812 C-18.81835938 193.81835938 -18.81835938 193.81835938 -18.74804688 190.83007812 C-18.73 189.83621094 -18.71195313 188.84234375 -18.69335938 187.81835938 C-18.67015625 187.05910156 -18.64695313 186.29984375 -18.62304688 185.51757812 C-19.74646484 185.13859375 -19.74646484 185.13859375 -20.89257812 184.75195312 C-23.81870693 183.42912522 -25.22940673 182.18076535 -27.31054688 179.76757812 C-28.18259766 178.7853125 -28.18259766 178.7853125 -29.07226562 177.78320312 C-33.28571064 171.62754039 -32.91954956 165.12015236 -32.91357422 157.94775391 C-32.92029144 156.78929962 -32.92700867 155.63084534 -32.93392944 154.43728638 C-32.95290815 150.61244402 -32.95683351 146.78777712 -32.95898438 142.96289062 C-32.96378687 140.97341174 -32.96859296 138.98393281 -32.97390521 136.99445522 C-32.99016431 130.74124496 -32.9950764 124.48809225 -32.99365234 118.23486328 C-32.99245119 111.79889532 -33.0135532 105.36326283 -33.04513967 98.92737973 C-33.07134912 93.38831012 -33.08201771 87.84934979 -33.08074152 82.31021869 C-33.08023329 79.00785432 -33.08769742 75.70585437 -33.10709763 72.40353775 C-33.12672608 68.71747352 -33.12093095 65.03226995 -33.10888672 61.34619141 C-33.12012573 60.26229126 -33.13136475 59.17839111 -33.14294434 58.06164551 C-33.08127671 50.62222059 -31.90461446 45.24532376 -26.84179688 39.49414062 C-26.27460938 39.048125 -25.70742187 38.60210937 -25.12304688 38.14257812 C-24.55585938 37.68109375 -23.98867187 37.21960938 -23.40429688 36.74414062 C-19.07532395 33.76322506 -16.19443362 33.28615039 -10.87304688 33.39257812 C-9.70257813 33.410625 -8.53210938 33.42867187 -7.32617188 33.44726562 C-6.43414062 33.47046875 -5.54210937 33.49367187 -4.62304688 33.51757812 C-4.67502608 30.43288106 -4.77011822 27.35096253 -4.87304688 24.26757812 C-4.88722656 23.39488281 -4.90140625 22.5221875 -4.91601562 21.62304688 C-5.0269915 16.42741608 -5.0269915 16.42741608 -7.63867188 12.09570312 C-8.29351562 11.57492188 -8.94835937 11.05414063 -9.62304688 10.51757812 C-10.12304688 7.51757812 -10.12304688 7.51757812 -9.62304688 4.51757812 C-6.67802991 0.73919905 -4.72758316 0.01517159 0 0 Z " fill="#181818" transform="translate(185.623046875,149.482421875)"/>
<path d="M0 0 C2.27046715 0.01611299 4.53915551 0.00001561 6.80957031 -0.01904297 C20.48768079 -0.03967485 33.81439796 1.79559728 46.83300781 6.14111328 C47.61909424 6.39787842 48.40518066 6.65464355 49.21508789 6.91918945 C74.05400811 15.24221774 94.38944955 28.43773707 113.27050781 46.39111328 C114.33011719 47.35404297 114.33011719 47.35404297 115.41113281 48.33642578 C133.60406454 65.4200324 145.55675353 89.70473717 152.27050781 113.39111328 C152.81194793 115.07868598 153.35360094 116.7661904 153.89550781 118.45361328 C157.11596795 129.51866364 157.5894984 140.32584611 157.53125 151.76269531 C157.52055563 154.25496921 157.53118718 156.74651778 157.54394531 159.23876953 C157.55728106 173.8678987 155.88890933 187.41837457 151.27050781 201.39111328 C150.91279297 202.47634277 150.91279297 202.47634277 150.54785156 203.58349609 C143.52644056 224.49777433 133.43782985 243.06907488 118.27832031 259.20751953 C116.23731811 261.35488176 116.23731811 261.35488176 114.51269531 263.73095703 C96.09289879 285.584409 68.05731379 298.53159542 41.27050781 306.39111328 C40.20832031 306.70306641 39.14613281 307.01501953 38.05175781 307.33642578 C30.34204027 309.51802168 22.97110792 310.54620755 14.94238281 310.59423828 C14.15983627 310.60125259 13.37728973 310.60826691 12.57102966 310.61549377 C10.05413017 310.63293598 7.53746555 310.63934733 5.02050781 310.64111328 C4.16325104 310.64178802 3.30599426 310.64246277 2.42276001 310.64315796 C-9.84824729 310.62777121 -21.76765239 310.40361593 -33.72949219 307.39111328 C-34.43686523 307.21950684 -35.14423828 307.04790039 -35.87304688 306.87109375 C-63.07561224 300.09165708 -86.48850468 285.53973003 -106.72949219 266.39111328 C-107.62410156 265.56095703 -108.51871094 264.73080078 -109.44042969 263.87548828 C-134.92485907 239.46183324 -151.93466186 201.13465344 -152.99681091 165.94973755 C-153.0795998 162.07587625 -153.10342206 158.20328051 -153.10449219 154.32861328 C-153.10639557 153.5846228 -153.10829895 152.84063232 -153.11026001 152.07409668 C-153.10664146 139.58836055 -151.94120385 127.554959 -148.47949219 115.51611328 C-148.26260742 114.75564697 -148.04572266 113.99518066 -147.82226562 113.21166992 C-142.71362606 95.79833058 -134.84705496 78.80646995 -123.72949219 64.39111328 C-123.10429688 63.57513672 -122.47910156 62.75916016 -121.83496094 61.91845703 C-95.85290729 28.76187181 -60.02977871 6.82753783 -18.05859375 0.67272949 C-12.05893803 -0.05270058 -6.03523457 -0.05066168 0 0 Z M-60.72949219 21.39111328 C-62.26089844 22.08140625 -62.26089844 22.08140625 -63.82324219 22.78564453 C-75.92254552 28.42873358 -86.99990963 36.32898616 -96.69433594 45.47314453 C-98.38438558 47.06587846 -100.0936398 48.52063921 -101.91699219 49.95361328 C-127.43363894 72.06804047 -143.01541391 108.6573541 -145.40527344 141.74658203 C-145.51982819 143.62770893 -145.62779589 145.50924743 -145.72949219 147.39111328 C-145.78153809 148.34195801 -145.83358398 149.29280273 -145.88720703 150.27246094 C-147.82882539 192.18197779 -131.35257887 228.69304281 -103.72949219 259.39111328 C-103.12621094 260.06787109 -102.52292969 260.74462891 -101.90136719 261.44189453 C-84.51088917 279.84242557 -60.5187281 292.38213301 -36.41699219 299.26611328 C-35.74925781 299.45737793 -35.08152344 299.64864258 -34.39355469 299.84570312 C2.50849165 309.6311446 43.3485338 303.10874411 76.27050781 284.39111328 C107.79157816 266.04573491 129.07304193 239.02976693 142.27050781 205.39111328 C142.68429687 204.34052734 143.09808594 203.28994141 143.52441406 202.20751953 C144.57864342 199.29288544 145.45092417 196.38039827 146.27050781 193.39111328 C146.45097656 192.77478027 146.63144531 192.15844727 146.81738281 191.5234375 C150.24916865 179.39914684 150.64741166 167.40191741 150.64550781 154.89111328 C150.64822693 153.72793579 150.64822693 153.72793579 150.65100098 152.54125977 C150.64776076 140.28675112 149.57546534 128.7301119 145.95800781 116.95361328 C145.73781982 116.22899902 145.51763184 115.50438477 145.29077148 114.7578125 C133.05617105 75.16886282 107.07576141 42.88059854 70.32177734 23.42480469 C29.37623371 2.79121367 -19.28685298 1.34548888 -60.72949219 21.39111328 Z " fill="#080808" transform="translate(247.7294921875,94.60888671875)"/>
<path d="M0 0 C20.46 0 40.92 0 62 0 C62 27.72 62 55.44 62 84 C41.54 84 21.08 84 0 84 C0 56.28 0 28.56 0 0 Z " fill="#FFFFFF" transform="translate(260,262)"/>
<path d="M0 0 C1.12796997 -0.01260864 2.25593994 -0.02521729 3.41809082 -0.03820801 C5.23850891 -0.02606262 5.23850891 -0.02606262 7.09570312 -0.01367188 C8.3457312 -0.01749878 9.59575928 -0.02132568 10.88366699 -0.02526855 C13.52701218 -0.02799102 16.16887798 -0.02262141 18.81201172 -0.00390625 C22.19512803 0.01888458 25.57697509 0.00575829 28.96004486 -0.01819611 C32.19280946 -0.03614871 35.42542195 -0.02356889 38.65820312 -0.01367188 C39.87181519 -0.0217688 41.08542725 -0.02986572 42.33581543 -0.03820801 C43.4637854 -0.02559937 44.59175537 -0.01299072 45.75390625 0 C47.24138367 0.00477356 47.24138367 0.00477356 48.75891113 0.00964355 C52.12274864 0.66227226 53.3382773 1.80252132 55.37695312 4.51757812 C55.31353641 8.13233061 55.11924844 10.51709314 52.93945312 13.45507812 C51.37695312 14.51757812 51.37695312 14.51757812 49.37695312 14.51757812 C49.37695312 20.78757813 49.37695312 27.05757812 49.37695312 33.51757812 C51.33632812 33.41445312 53.29570312 33.31132812 55.31445312 33.20507812 C61.8637275 33.21933117 66.31834876 34.29153573 71.37695312 38.51757812 C75.60766984 43.16526452 77.51082036 47.35854628 77.47460938 53.62304688 C77.46977539 55.09741211 77.46977539 55.09741211 77.46484375 56.6015625 C77.45227539 58.13780273 77.45227539 58.13780273 77.43945312 59.70507812 C77.43494141 60.74083984 77.43042969 61.77660156 77.42578125 62.84375 C77.41399323 65.40175079 77.39753828 67.95963546 77.37695312 70.51757812 C75.89195312 71.01257813 75.89195312 71.01257813 74.37695312 71.51757812 C74.36760742 70.88779053 74.35826172 70.25800293 74.34863281 69.60913086 C74.29456551 66.72368594 74.21099187 63.83979949 74.12695312 60.95507812 C74.11277344 59.96443359 74.09859375 58.97378906 74.08398438 57.953125 C73.87421119 51.63895225 73.13240591 47.65481864 69.37695312 42.51757812 C63.92294378 38.28793822 59.79132401 37.36642831 53.06323242 37.34057617 C52.32140717 37.33400497 51.57958191 37.32743378 50.8152771 37.32066345 C48.3605743 37.30095473 45.90593261 37.28927352 43.45117188 37.27929688 C42.6119047 37.27522135 41.77263752 37.27114582 40.907938 37.26694679 C36.46605298 37.24609676 32.02419875 37.23179023 27.58227539 37.22241211 C22.99895286 37.21134766 18.41611582 37.17694456 13.8329649 37.13724041 C10.30443937 37.11107337 6.77602956 37.10272023 3.24741554 37.09913063 C1.55815157 37.09426517 -0.13110724 37.08265227 -1.82027626 37.06409264 C-4.18762136 37.03969761 -6.5537098 37.04066625 -8.92114258 37.04760742 C-9.61486465 37.03479736 -10.30858673 37.0219873 -11.02333069 37.00878906 C-16.01586612 37.06197582 -18.67985193 38.57822471 -22.62304688 41.51757812 C-23.28304687 41.51757812 -23.94304687 41.51757812 -24.62304688 41.51757812 C-24.84992188 42.30132812 -25.07679688 43.08507812 -25.31054688 43.89257812 C-26.62304688 46.51757812 -26.62304688 46.51757812 -29.24804688 47.83007812 C-30.03179687 48.05695313 -30.81554687 48.28382813 -31.62304688 48.51757812 C-29.81639918 42.55564072 -25.95217426 38.27862566 -21.06054688 34.58007812 C-15.64905509 32.90743521 -10.24173431 33.29249717 -4.62304688 33.51757812 C-4.67502608 30.43288106 -4.77011822 27.35096253 -4.87304688 24.26757812 C-4.88722656 23.39488281 -4.90140625 22.5221875 -4.91601562 21.62304688 C-5.0269915 16.42741608 -5.0269915 16.42741608 -7.63867188 12.09570312 C-8.29351562 11.57492188 -8.94835937 11.05414063 -9.62304688 10.51757812 C-10.12304688 7.51757812 -10.12304688 7.51757812 -9.62304688 4.51757812 C-6.67802991 0.73919905 -4.72758316 0.01517159 0 0 Z " fill="#131313" transform="translate(185.623046875,149.482421875)"/>
<path d="M0 0 C3.4375 0.75 3.4375 0.75 5.4375 2.75 C5.69197559 4.84618282 5.69197559 4.84618282 5.69819641 7.48802185 C5.70528122 8.48772003 5.71236603 9.48741821 5.71966553 10.51741028 C5.71718811 11.61824448 5.71471069 12.71907867 5.7121582 13.85327148 C5.71726913 15.00941956 5.72238007 16.16556763 5.72764587 17.35675049 C5.74159493 21.19491694 5.7405811 25.0329049 5.73828125 28.87109375 C5.74118429 30.85775874 5.74409146 32.8444238 5.747688 34.83108765 C5.75879201 41.08019981 5.75921568 47.32925188 5.75317383 53.57836914 C5.74713304 60.02906708 5.75944547 66.47954695 5.7807439 72.93020767 C5.79834723 78.46487046 5.80436325 83.99946376 5.80110615 89.53415352 C5.799291 92.84138049 5.80325896 96.14841687 5.81582069 99.45562553 C5.82810668 103.14303435 5.82144021 106.8299338 5.80981445 110.51733398 C5.81745819 111.61614395 5.82510193 112.71495392 5.83297729 113.84706116 C5.82596298 114.84957916 5.81894867 115.85209717 5.8117218 116.88499451 C5.81188954 117.75717841 5.81205729 118.62936232 5.81223011 119.52797604 C5.35161808 122.25925099 4.67546312 123.1492081 2.4375 124.75 C-1.125 125.0625 -1.125 125.0625 -4.5625 124.75 C-7.08025188 122.23224812 -6.81514367 121.41208647 -6.82319641 117.92932129 C-6.83028122 116.91134964 -6.83736603 115.89337799 -6.84466553 114.84455872 C-6.84218811 113.723452 -6.83971069 112.60234528 -6.8371582 111.44726562 C-6.84226913 110.27000412 -6.84738007 109.09274261 -6.85264587 107.87980652 C-6.86418694 104.64637496 -6.8666119 101.41310188 -6.86408257 98.17965508 C-6.86301468 95.48315246 -6.86789147 92.78667364 -6.872688 90.09017611 C-6.88379144 83.73083506 -6.88421569 77.37155308 -6.87817383 71.01220703 C-6.87213011 64.44447511 -6.88445306 57.8769572 -6.9057439 51.3092618 C-6.92333594 45.6761019 -6.92936513 40.04301027 -6.92610615 34.40982389 C-6.92428953 31.04283552 -6.92696696 27.67599985 -6.94082069 24.30903625 C-6.9530908 20.55676548 -6.94645015 16.80499649 -6.93481445 13.05273438 C-6.94245819 11.93162766 -6.95010193 10.81052094 -6.95797729 9.65544128 C-6.95096298 8.63746964 -6.94394867 7.61949799 -6.9367218 6.57067871 C-6.93688954 5.68282433 -6.93705729 4.79496994 -6.93723011 3.88021088 C-6.81356917 3.17724129 -6.68990824 2.4742717 -6.5625 1.75 C-3.5625 -0.25 -3.5625 -0.25 0 0 Z " fill="#0F0F0F" transform="translate(190.5625,196.25)"/>
<path d="M0 0 C2.21523267 1.62004949 2.91762414 2.50810565 3.37473011 5.23764133 C3.37456237 6.11719958 3.37439463 6.99675783 3.3742218 7.90296936 C3.38123611 8.91390152 3.38825043 9.92483368 3.39547729 10.96640015 C3.38783356 12.07456085 3.38018982 13.18272156 3.37231445 14.32446289 C3.37596512 15.49211685 3.37961578 16.65977081 3.38337708 17.86280823 C3.39150113 21.73290426 3.37785738 25.60258407 3.36328125 29.47265625 C3.3627629 32.15401296 3.36322711 34.83535375 3.36479187 37.51670837 C3.36567488 43.13985188 3.35459203 48.76287484 3.33618164 54.38598633 C3.31500356 60.89178921 3.31150625 67.39741561 3.3177436 73.90324599 C3.32343304 80.15726117 3.31779725 86.41121406 3.30657005 92.66522026 C3.30271007 95.3290526 3.30157312 97.99289027 3.3031559 100.65672493 C3.30352506 104.37289819 3.29094851 108.08879912 3.2746582 111.80493164 C3.27837433 113.47020905 3.27837433 113.47020905 3.28216553 115.16912842 C3.27508072 116.17724075 3.26799591 117.18535309 3.26069641 118.22401428 C3.25864354 119.10319551 3.25659067 119.98237673 3.25447559 120.88819981 C3 123 3 123 1 125 C-5.21107714 125.56464338 -5.21107714 125.56464338 -7.69884682 123.78411102 C-9.40524942 121.44433141 -9.37720569 120.02541268 -9.38095093 117.14172363 C-9.3894104 116.14065079 -9.39786987 115.13957794 -9.40658569 114.10816956 C-9.400513 113.01093063 -9.39444031 111.91369171 -9.38818359 110.78320312 C-9.39344055 109.62690903 -9.39869751 108.47061493 -9.40411377 107.27928162 C-9.41734771 103.44646813 -9.40856332 99.61406792 -9.3984375 95.78125 C-9.40045725 93.12470988 -9.40336298 90.46818245 -9.40713501 87.81164551 C-9.41259414 82.23978169 -9.40539692 76.66803713 -9.39111328 71.09619141 C-9.37478634 64.65284496 -9.38007475 58.20978328 -9.3965925 51.76644373 C-9.41020298 46.23599639 -9.41212921 40.70563482 -9.40427649 35.17517614 C-9.3995975 31.87133152 -9.40015762 28.56765026 -9.40888596 25.2638092 C-9.41647897 21.58127407 -9.40492563 17.89929076 -9.38818359 14.21679688 C-9.39425629 13.11955795 -9.40032898 12.02231903 -9.40658569 10.89183044 C-9.39812622 9.8907576 -9.38966675 8.88968475 -9.38095093 7.85827637 C-9.37981985 6.98739128 -9.37868877 6.1165062 -9.37752342 5.21923065 C-8.46466996 -0.14687982 -4.86212244 -0.6077653 0 0 Z " fill="#0A0A0A" transform="translate(174,196)"/>
<path d="M0 0 C0 27.72 0 55.44 0 84 C-12 84 -12 84 -15.1875 81.6875 C-18.03948263 77.45869816 -18.12611573 74.35653874 -18.12939453 69.35717773 C-18.13114685 68.68695587 -18.13289917 68.01673401 -18.13470459 67.32620239 C-18.13910409 65.11197314 -18.13619214 62.89782381 -18.1328125 60.68359375 C-18.13348601 59.1456755 -18.13445642 57.60775736 -18.13571167 56.06983948 C-18.137186 52.84773749 -18.13504229 49.62566322 -18.13037109 46.40356445 C-18.12466917 42.2684455 -18.12795741 38.13339139 -18.13394356 33.9982748 C-18.13755222 30.823344 -18.13640926 27.64842865 -18.13381577 24.47349739 C-18.13314759 22.94842585 -18.13397111 21.42335292 -18.13629532 19.898283 C-18.13882736 17.76995995 -18.13497368 15.64174287 -18.12939453 13.51342773 C-18.12859894 12.30113998 -18.12780334 11.08885223 -18.12698364 9.83982849 C-18 7 -18 7 -17 5 C-16.34 5 -15.68 5 -15 5 C-14.67 4.01 -14.34 3.02 -14 2 C-11 0 -11 0 0 0 Z " fill="#FEFEFE" transform="translate(256,262)"/>
<path d="M0 0 C11.55555556 0 11.55555556 0 16 4 C18.29304391 7.47668719 18.25869066 10.5134594 18.2746582 14.61694336 C18.2823246 15.60063652 18.2823246 15.60063652 18.29014587 16.60420227 C18.30401501 18.7661763 18.3030872 20.92783059 18.30078125 23.08984375 C18.30466965 24.59672666 18.30900462 26.10360849 18.31376648 27.61048889 C18.3212229 30.76697342 18.32094163 33.92334608 18.31567383 37.07983398 C18.30987979 41.119499 18.32681101 45.15870543 18.3500185 49.19829464 C18.36476935 52.30988734 18.36562573 55.42136994 18.36250877 58.53299141 C18.3630213 60.02209952 18.36824629 61.51121389 18.37832069 63.00028801 C18.39069459 65.08504687 18.38388883 67.16891686 18.37231445 69.25366211 C18.37294388 70.43850693 18.3735733 71.62335175 18.3742218 72.84410095 C17.95453215 76.38344094 17.14946049 78.17943025 15 81 C11 84 11 84 0 84 C0 56.28 0 28.56 0 0 Z " fill="#FEFEFE" transform="translate(326,262)"/>
<path d="M0 0 C0 38.61 0 77.22 0 117 C-2.475 117.495 -2.475 117.495 -5 118 C-6 117 -6 117 -6.12304783 115.04971981 C-6.12212604 114.18784337 -6.12120424 113.32596693 -6.12025452 112.43797302 C-6.12162918 111.45214233 -6.12300385 110.46631165 -6.12442017 109.4506073 C-6.12082489 108.36016617 -6.11722961 107.26972504 -6.11352539 106.14624023 C-6.11367142 105.00492645 -6.11381744 103.86361267 -6.1139679 102.68771362 C-6.11326818 98.89465469 -6.10547307 95.10164416 -6.09765625 91.30859375 C-6.09579228 88.68685432 -6.09436828 86.06511454 -6.09336853 83.44337463 C-6.09025551 77.23498045 -6.08204252 71.02660379 -6.07201904 64.81821734 C-6.06085699 57.75182559 -6.05534722 50.68543301 -6.05032361 43.61903465 C-6.03985988 29.07934737 -6.022261 14.53967393 -6 0 C-4 -1 -4 -1 0 0 Z " fill="#F4F4F4" transform="translate(174,200)"/>
<path d="M0 0 C3.69230769 0.69230769 3.69230769 0.69230769 5 2 C5.09575309 3.50551174 5.12188187 5.0155103 5.12025452 6.52406311 C5.12162918 7.50147964 5.12300385 8.47889618 5.12442017 9.4859314 C5.12082489 10.56702179 5.11722961 11.64811218 5.11352539 12.76196289 C5.11367142 13.8935231 5.11381744 15.02508331 5.1139679 16.19093323 C5.11326819 19.95152671 5.10547311 23.71207137 5.09765625 27.47265625 C5.09579227 30.07197543 5.09436828 32.67129497 5.09336853 35.27061462 C5.08993341 41.42588577 5.08204256 47.5811366 5.07201904 53.73640007 C5.06085694 60.74233346 5.05534721 67.74826767 5.05032361 74.75420773 C5.03985992 89.16948133 5.02226108 103.58474004 5 118 C3.34385343 118.38218767 1.67542976 118.71395102 0 119 C-1.60871498 117.39128502 -1.12600829 115.67099101 -1.12698364 113.44470215 C-1.12980347 112.46031662 -1.13262329 111.47593109 -1.13552856 110.4617157 C-1.13350433 109.37284561 -1.1314801 108.28397552 -1.12939453 107.16210938 C-1.13114685 106.02240189 -1.13289917 104.8826944 -1.13470459 103.70845032 C-1.13912586 99.92020164 -1.13618414 96.1319992 -1.1328125 92.34375 C-1.13348546 89.72440583 -1.13445542 87.10506173 -1.13571167 84.48571777 C-1.1375332 78.98770644 -1.13512749 73.48970852 -1.13037109 67.99169922 C-1.1249285 61.62683013 -1.12669117 55.26199308 -1.1321975 48.89712477 C-1.13727429 42.78515668 -1.1367471 36.67320284 -1.13381577 30.56123352 C-1.13314622 27.95518489 -1.13397587 25.34913545 -1.13629532 22.74308777 C-1.13882022 19.10799967 -1.13498353 15.47297404 -1.12939453 11.83789062 C-1.13141876 10.74902054 -1.13344299 9.66015045 -1.13552856 8.5382843 C-1.13270874 7.55389877 -1.12988892 6.56951324 -1.12698364 5.55529785 C-1.12660662 4.69472023 -1.12622959 3.83414261 -1.12584114 2.94748688 C-1 1 -1 1 0 0 Z " fill="#F2F2F2" transform="translate(188,199)"/>
<path d="M0 0 C1.6640625 1.08203125 1.6640625 1.08203125 3 3 C3.3984375 6.28515625 3.3984375 6.28515625 3.375 10.0625 C3.38273438 11.31160156 3.39046875 12.56070313 3.3984375 13.84765625 C3.26695312 14.88792969 3.13546875 15.92820313 3 17 C2.01 17.66 1.02 18.32 0 19 C-0.33 14.05 -0.66 9.1 -1 4 C-2.65 4 -4.3 4 -6 4 C-5.67 42.61 -5.34 81.22 -5 121 C-3.68 121 -2.36 121 -1 121 C-0.505 83.38 -0.505 83.38 0 45 C0.99 45.66 1.98 46.32 3 47 C3.2973557 49.47302942 3.39933014 51.69668258 3.37231445 54.171875 C3.37596512 54.91022583 3.37961578 55.64857666 3.38337708 56.40930176 C3.39150075 58.85643322 3.37785794 61.30290626 3.36328125 63.75 C3.36276286 65.44628906 3.36327975 67.14257872 3.36479187 68.83886719 C3.36470207 72.39657542 3.35425602 75.95405743 3.33618164 79.51171875 C3.3134941 84.07852681 3.31294945 88.64500413 3.31969929 93.21185303 C3.32303628 96.71536208 3.31641429 100.21879534 3.30657005 103.72229004 C3.3027131 105.40644942 3.30157188 107.09061722 3.3031559 108.77478027 C3.3035256 111.12605942 3.29093353 113.47691005 3.2746582 115.828125 C3.27837433 116.87861023 3.27837433 116.87861023 3.28216553 117.95031738 C3.22874212 122.77125788 3.22874212 122.77125788 1 125 C-5.21107714 125.56464338 -5.21107714 125.56464338 -7.69884682 123.78411102 C-9.40524942 121.44433141 -9.37720569 120.02541268 -9.38095093 117.14172363 C-9.3894104 116.14065079 -9.39786987 115.13957794 -9.40658569 114.10816956 C-9.400513 113.01093063 -9.39444031 111.91369171 -9.38818359 110.78320312 C-9.39344055 109.62690903 -9.39869751 108.47061493 -9.40411377 107.27928162 C-9.41734771 103.44646813 -9.40856332 99.61406792 -9.3984375 95.78125 C-9.40045725 93.12470988 -9.40336298 90.46818245 -9.40713501 87.81164551 C-9.41259414 82.23978169 -9.40539692 76.66803713 -9.39111328 71.09619141 C-9.37478634 64.65284496 -9.38007475 58.20978328 -9.3965925 51.76644373 C-9.41020298 46.23599639 -9.41212921 40.70563482 -9.40427649 35.17517614 C-9.3995975 31.87133152 -9.40015762 28.56765026 -9.40888596 25.2638092 C-9.41647897 21.58127407 -9.40492563 17.89929076 -9.38818359 14.21679688 C-9.39425629 13.11955795 -9.40032898 12.02231903 -9.40658569 10.89183044 C-9.39812622 9.8907576 -9.38966675 8.88968475 -9.38095093 7.85827637 C-9.37981985 6.98739128 -9.37868877 6.1165062 -9.37752342 5.21923065 C-8.46466996 -0.14687982 -4.86212244 -0.6077653 0 0 Z " fill="#0D0D0D" transform="translate(211,196)"/>
<path d="M0 0 C0.33 0 0.66 0 1 0 C1.06944885 10.37884933 1.12278521 20.75764356 1.15543652 31.13667774 C1.17110592 35.95586657 1.19236741 40.77489667 1.22631836 45.59399414 C1.25886641 50.24294792 1.2768434 54.89174882 1.28463173 59.54080772 C1.29018344 61.31627497 1.30102435 63.09173367 1.31719017 64.867136 C1.33890417 67.35016722 1.3419695 69.83256325 1.34057617 72.31567383 C1.35675491 73.42158371 1.35675491 73.42158371 1.3732605 74.54983521 C1.35558376 77.45276995 1.3303586 79.50120731 -0.29862976 81.96073914 C-3.14868994 83.70166297 -5.76564248 83.2940325 -9 83 C-11.4295903 80.5704097 -11.23446257 79.30611087 -11.24884033 75.99156189 C-11.24164978 75.29744705 -11.23445923 74.60333221 -11.22705078 73.88818359 C-11.22734283 73.15637375 -11.22763489 72.4245639 -11.22793579 71.670578 C-11.22654001 69.24641146 -11.2109674 66.82255049 -11.1953125 64.3984375 C-11.19158325 62.71977913 -11.18873586 61.04111859 -11.18673706 59.36245728 C-11.17909369 54.94008393 -11.15943922 50.51784155 -11.1373291 46.09552002 C-11.11688579 41.58453137 -11.10773859 37.0735216 -11.09765625 32.5625 C-11.07619394 23.70827573 -11.04204955 14.85414875 -11 6 C-10.01 6 -9.02 6 -8 6 C-7.67 30.09 -7.34 54.18 -7 79 C-5.68 79 -4.36 79 -3 79 C-2.99191315 78.03977936 -2.98382629 77.07955872 -2.97549438 76.09024048 C-2.89811604 67.05503152 -2.81039813 58.0199747 -2.71247292 48.98496437 C-2.66245931 44.33961619 -2.61612991 39.69429131 -2.578125 35.04882812 C-2.54133592 30.56835616 -2.49499376 26.08807684 -2.44193649 21.60776901 C-2.42335851 19.895729 -2.40826322 18.18364764 -2.39665604 16.47154617 C-2.37985148 14.07929878 -2.35083148 11.68749588 -2.31884766 9.29541016 C-2.31668747 8.58259384 -2.31452728 7.86977753 -2.31230164 7.13536072 C-2.22810432 2.22810432 -2.22810432 2.22810432 0 0 Z " fill="#080808" transform="translate(231,238)"/>
<path d="M0 0 C1.09783813 -0.00315216 2.19567627 -0.00630432 3.32678223 -0.009552 C5.11892151 -0.00651566 5.11892151 -0.00651566 6.94726562 -0.00341797 C8.16426147 -0.00437469 9.38125732 -0.00533142 10.63513184 -0.00631714 C13.21427461 -0.00699919 15.79341909 -0.00514319 18.37255859 -0.00097656 C22.33630198 0.00437131 26.29993204 -0.00092076 30.26367188 -0.00732422 C32.76237004 -0.00666344 35.26106814 -0.00538229 37.75976562 -0.00341797 C38.95452515 -0.0054422 40.14928467 -0.00746643 41.38024902 -0.009552 C42.47808716 -0.00639984 43.57592529 -0.00324768 44.70703125 0 C46.16477966 0.00119339 46.16477966 0.00119339 47.65197754 0.00241089 C49.85351562 0.12939453 49.85351562 0.12939453 50.85351562 1.12939453 C50.97851562 4.12939453 50.97851562 4.12939453 50.85351562 7.12939453 C49.16326793 8.81964223 47.03814216 8.26554891 44.72290039 8.2746582 C43.08098473 8.28422798 43.08098473 8.28422798 41.40589905 8.29399109 C40.21427658 8.29510391 39.02265411 8.29621674 37.79492188 8.29736328 C36.5802977 8.30069168 35.36567352 8.30402008 34.11424255 8.30744934 C31.53930033 8.31252376 28.96435151 8.31485751 26.3894043 8.31469727 C22.43657665 8.31688316 18.48402817 8.33503215 14.53125 8.35400391 C12.03580825 8.35693775 9.54036517 8.35892261 7.04492188 8.35986328 C5.85532364 8.3670488 4.6657254 8.37423431 3.44007874 8.38163757 C2.34231613 8.37856094 1.24455353 8.37548431 0.11352539 8.37231445 C-0.85608627 8.37373947 -1.82569794 8.37516449 -2.82469177 8.37663269 C-5.14648438 8.12939453 -5.14648438 8.12939453 -7.14648438 6.12939453 C-6.44363891 0.36606173 -5.61415692 0.00459605 0 0 Z " fill="#EEEEEE" transform="translate(186.146484375,152.87060546875)"/>
<path d="M0 0 C10.89 0 21.78 0 33 0 C33 5.94 33 11.88 33 18 C31.02 16.35 29.04 14.7 27 13 C24.5226426 12.2540449 24.5226426 12.2540449 22.03125 12.3359375 C21.13019531 12.32949219 20.22914063 12.32304687 19.30078125 12.31640625 C17.91439453 12.34541016 17.91439453 12.34541016 16.5 12.375 C15.57574219 12.35566406 14.65148437 12.33632812 13.69921875 12.31640625 C12.79816406 12.32285156 11.89710938 12.32929688 10.96875 12.3359375 C10.15857422 12.34157715 9.34839844 12.3472168 8.51367188 12.35302734 C5.07170937 13.04751759 5.07170937 13.04751759 0 18 C0 12.06 0 6.12 0 0 Z " fill="#FBFBFB" transform="translate(192,164)"/>
<path d="M0 0 C2.3181362 1.89111111 3.66914015 3.33828031 5 6 C5.07103956 13.10395588 3.12377657 17.65309653 -1.75 22.875 C-5.15639961 24.57819981 -8.33129781 24.7410052 -12 24 C-15 22.125 -15 22.125 -17 19 C-17.93539906 14.02500144 -17.57159851 10.18716614 -15.375 5.625 C-10.56344558 0.30696617 -7.19992504 -2.13331112 0 0 Z " fill="#0E0E0E" transform="translate(346,215)"/>
<path d="M0 0 C2.31 0 4.62 0 7 0 C6.85892253 1.45880109 6.71197585 2.91703551 6.5625 4.375 C6.48128906 5.18710938 6.40007812 5.99921875 6.31640625 6.8359375 C6 9 6 9 5 11 C5.99 11 6.98 11 8 11 C8.06058594 10.28972656 8.12117188 9.57945312 8.18359375 8.84765625 C8.26738281 7.92855469 8.35117187 7.00945312 8.4375 6.0625 C8.51871094 5.14597656 8.59992188 4.22945312 8.68359375 3.28515625 C9 1 9 1 10 0 C11.66617115 -0.04063832 13.33388095 -0.042721 15 0 C14.72487897 8.25363079 14.10257613 15.27714047 8.52734375 21.6953125 C7 23 7 23 4.4375 23.3125 C2 23 2 23 0 21 C0.375 18.875 0.375 18.875 1 17 C2.98 16.67 4.96 16.34 7 16 C7 15.34 7 14.68 7 14 C5.2984375 14.2784375 5.2984375 14.2784375 3.5625 14.5625 C1.7990625 14.7790625 1.7990625 14.7790625 0 15 C-0.33 14.67 -0.66 14.34 -1 14 C-0.90968426 11.64305046 -0.75311872 9.28846418 -0.5625 6.9375 C-0.46066406 5.64714844 -0.35882813 4.35679687 -0.25390625 3.02734375 C-0.17011719 2.02832031 -0.08632813 1.02929688 0 0 Z " fill="#151515" transform="translate(305,224)"/>
<path d="M0 0 C1.6875 1.3125 1.6875 1.3125 2.5 3.875 C2.561875 4.679375 2.62375 5.48375 2.6875 6.3125 C1.6875 7.3125 1.6875 7.3125 -0.875 7.375 C-1.679375 7.354375 -2.48375 7.33375 -3.3125 7.3125 C-3.6425 5.6625 -3.9725 4.0125 -4.3125 2.3125 C-7.32431686 2.99109203 -7.32431686 2.99109203 -8.4921875 4.953125 C-9.57768037 8.07520924 -9.50344492 10.76525401 -9.4375 14.0625 C-9.41945312 15.23296875 -9.40140625 16.4034375 -9.3828125 17.609375 C-9.35960937 18.50140625 -9.33640625 19.3934375 -9.3125 20.3125 C-6.3425 19.6525 -3.3725 18.9925 -0.3125 18.3125 C-1.3125 22.3125 -1.3125 22.3125 -2.875 23.5625 C-6.4280931 24.65575941 -9.63956345 25.01246537 -13.3125 24.3125 C-16.193342 22.1518685 -17.11176069 20.55039238 -17.6875 17 C-17.98373926 10.92709515 -16.9724222 7.159424 -13.3125 2.3125 C-9.06265385 -1.15447975 -5.21860249 -1.55147642 0 0 Z " fill="#0F0F0F" transform="translate(228.3125,214.6875)"/>
<path d="M0 0 C2.08485081 0.09643583 4.1692457 0.212629 6.25 0.375 C5.92 4.005 5.59 7.635 5.25 11.375 C5.91 11.375 6.57 11.375 7.25 11.375 C7.25 12.365 7.25 13.355 7.25 14.375 C4.28144127 15.85927936 1.55088341 15.58441537 -1.75 15.625 C-3.008125 15.65078125 -4.26625 15.6765625 -5.5625 15.703125 C-6.614375 15.59484375 -7.66625 15.4865625 -8.75 15.375 C-11.10620437 11.84069344 -11.23991613 10.53928713 -10.75 6.375 C-8.61552146 0.30858732 -5.97307125 0 0 0 Z " fill="#131313" transform="translate(247.75,223.625)"/>
<path d="M0 0 C4.95 0 9.9 0 15 0 C15.125 8.625 15.125 8.625 14 12 C14.66 12 15.32 12 16 12 C16 12.66 16 13.32 16 14 C13.29120665 15.35439668 10.99066732 15.06501451 8 15 C7.85714286 7.57142857 7.85714286 7.57142857 9 4 C8.01 4.495 8.01 4.495 7 5 C6.31068656 7.34907875 6.31068656 7.34907875 5.875 10.0625 C5.70742188 10.98160156 5.53984375 11.90070313 5.3671875 12.84765625 C5.24601562 13.55792969 5.12484375 14.26820313 5 15 C3.02 15 1.04 15 -1 15 C-0.67 10.05 -0.34 5.1 0 0 Z " fill="#080808" transform="translate(360,224)"/>
<path d="M0 0 C3.51649322 1.19710407 4.21616614 1.73959116 5.9375 5 C6.30007322 8.09255834 6.21970181 11.14183801 6.125 14.25 C6.11146484 15.09046875 6.09792969 15.9309375 6.08398438 16.796875 C6.04873464 18.86485938 5.9949302 20.93251271 5.9375 23 C4.6175 23 3.2975 23 1.9375 23 C1.6075 16.73 1.2775 10.46 0.9375 4 C-0.3825 4.33 -1.7025 4.66 -3.0625 5 C-3.3925 11.27 -3.7225 17.54 -4.0625 24 C-5.0525 24.33 -6.0425 24.66 -7.0625 25 C-7.17882513 21.58362047 -7.24978897 18.16775103 -7.3125 14.75 C-7.34601563 13.78191406 -7.37953125 12.81382812 -7.4140625 11.81640625 C-7.51277833 4.65950831 -7.51277833 4.65950831 -5.23828125 1.328125 C-3.0625 0 -3.0625 0 0 0 Z " fill="#1F1F1F" transform="translate(245.0625,196)"/>
<path d="M0 0 C3.875 0.875 3.875 0.875 5 2 C5.71331684 8.2689576 4.81270676 13.37458648 2 19 C-0.046875 19.78125 -0.046875 19.78125 -2 20 C-3.76858714 18.23141286 -3.21432524 15.77115486 -3.25 13.375 C-3.22479712 8.09499637 -2.5139413 4.60889238 0 0 Z " fill="#F1F1F1" transform="translate(339,217)"/>
<path d="M0 0 C3.96 0 7.92 0 12 0 C12.33 1.32 12.66 2.64 13 4 C9.25 5.125 9.25 5.125 7 4 C6.67 7.63 6.34 11.26 6 15 C3.69 15 1.38 15 -1 15 C-0.67 10.05 -0.34 5.1 0 0 Z " fill="#101010" transform="translate(264,224)"/>
<path d="M0 0 C4.29 0 8.58 0 13 0 C12.67 1.65 12.34 3.3 12 5 C10.68 5 9.36 5 8 5 C7.34 8.3 6.68 11.6 6 15 C4.02 15 2.04 15 0 15 C0 10.05 0 5.1 0 0 Z " fill="#0A0A0A" transform="translate(284,224)"/>
<path d="M0 0 C6.6 0 13.2 0 20 0 C20.33 1.65 20.66 3.3 21 5 C13.74 5 6.48 5 -1 5 C-0.67 3.35 -0.34 1.7 0 0 Z " fill="#FEFEFE" transform="translate(281,254)"/>
<path d="M0 0 C2.203125 0 2.203125 0 5.953125 0.375 C5.293125 0.87 4.633125 1.365 3.953125 1.875 C1.0273944 5.53216325 1.50704911 7.76554918 1.953125 12.375 C2.613125 13.035 3.273125 13.695 3.953125 14.375 C1.16449493 15.76931504 -0.96766368 15.63160094 -4.046875 15.375 C-6.40307937 11.84069344 -6.53679113 10.53928713 -6.046875 6.375 C-3.49839855 0.64092798 -3.49839855 0.64092798 0 0 Z " fill="#101010" transform="translate(243.046875,223.625)"/>
<path d="M0 0 C3.4375 0.8125 3.4375 0.8125 5.4375 2.8125 C5.6328125 5.8515625 5.6328125 5.8515625 5.5625 9.4375 C5.54445312 10.62601563 5.52640625 11.81453125 5.5078125 13.0390625 C5.48460937 13.95429688 5.46140625 14.86953125 5.4375 15.8125 C4.4475 15.4825 3.4575 15.1525 2.4375 14.8125 C2.1075 11.1825 1.7775 7.5525 1.4375 3.8125 C0.1175 3.8125 -1.2025 3.8125 -2.5625 3.8125 C-2.8925 7.1125 -3.2225 10.4125 -3.5625 13.8125 C-4.5525 13.8125 -5.5425 13.8125 -6.5625 13.8125 C-6.64364106 12.04242286 -6.70175505 10.27127902 -6.75 8.5 C-6.78480469 7.51386719 -6.81960937 6.52773437 -6.85546875 5.51171875 C-6.5625 2.8125 -6.5625 2.8125 -5.2734375 0.9453125 C-3.5625 -0.1875 -3.5625 -0.1875 0 0 Z " fill="#0A0A0A" transform="translate(226.5625,196.1875)"/>
<path d="M0 0 C1.32 0 2.64 0 4 0 C4 5.94 4 11.88 4 18 C2.68 18 1.36 18 0 18 C0 12.06 0 6.12 0 0 Z " fill="#FFFFFF" transform="translate(228,164)"/>
<path d="M0 0 C2.64 0 5.28 0 8 0 C8.36923077 5.41538462 8.36923077 5.41538462 6.5 8.375 C6.005 8.91125 5.51 9.4475 5 10 C1.125 9.125 1.125 9.125 0 8 C-0.14115161 5.32941149 -0.04247107 2.67567762 0 0 Z " fill="#EEEEEE" transform="translate(170,337)"/>
<path d="M0 0 C0.77279297 -0.00338379 1.54558594 -0.00676758 2.34179688 -0.01025391 C3.60443359 -0.01605469 3.60443359 -0.01605469 4.89257812 -0.02197266 C5.77300781 -0.01037109 6.6534375 0.00123047 7.56054688 0.01318359 C8.44097656 0.00158203 9.32140625 -0.01001953 10.22851562 -0.02197266 C11.07027344 -0.01810547 11.91203125 -0.01423828 12.77929688 -0.01025391 C13.93848633 -0.00517822 13.93848633 -0.00517822 15.12109375 0 C17.06054688 0.38818359 17.06054688 0.38818359 19.06054688 3.38818359 C11.47054687 3.38818359 3.88054687 3.38818359 -3.93945312 3.38818359 C-1.93945312 0.38818359 -1.93945312 0.38818359 0 0 Z " fill="#F9F9F9" transform="translate(200.939453125,178.61181640625)"/>
<path d="M0 0 C0.99 0 1.98 0 3 0 C3 5.94 3 11.88 3 18 C2.01 18 1.02 18 0 18 C0 12.06 0 6.12 0 0 Z " fill="#FFFFFF" transform="translate(185,164)"/>
<path d="M0 0 C7.01840491 -0.3190184 7.01840491 -0.3190184 10 2 C10.8125 4.5625 10.8125 4.5625 11 7 C10 8 10 8 7.4375 8.0625 C6.633125 8.041875 5.82875 8.02125 5 8 C4.9175 7.21625 4.835 6.4325 4.75 5.625 C4.27193661 2.85250896 4.27193661 2.85250896 1.9375 1.6875 C1.298125 1.460625 0.65875 1.23375 0 1 C0 0.67 0 0.34 0 0 Z " fill="#1C1C1C" transform="translate(220,214)"/>
<path d="M0 0 C0.66 0 1.32 0 2 0 C1.67 2.97 1.34 5.94 1 9 C0.34 9 -0.32 9 -1 9 C-1.09765625 2.84765625 -1.09765625 2.84765625 -1 1 C-0.67 0.67 -0.34 0.34 0 0 Z " fill="#E2E2E2" transform="translate(245,227)"/>
<path d="M0 0 C0.66 0 1.32 0 2 0 C1.67 3.3 1.34 6.6 1 10 C-0.87376865 6.2524627 -1.3214079 4.96403081 -1 1 C-0.67 0.67 -0.34 0.34 0 0 Z " fill="#D5D5D5" transform="translate(367,228)"/>
<path d="M0 0 C0.98120464 3.05263664 0.98120464 4.94736336 0 8 C-0.99 8 -1.98 8 -3 8 C-2.74438677 5.6568787 -2.40729228 3.32156597 -2 1 C-1.34 0.67 -0.68 0.34 0 0 Z " fill="#D1D1D1" transform="translate(313,227)"/>
</svg>
